<svg xmlns="http://www.w3.org/2000/svg" width="640" height="160" viewBox="0 0 640 160" role="img" aria-labelledby="title desc">
  <title id="title">CTX logo</title>
  <desc id="desc">CTX portable memory logo with a capsule network mark.</desc>
  <defs>
    <linearGradient id="markGradient" x1="20" x2="132" y1="24" y2="136" gradientUnits="userSpaceOnUse">
      <stop offset="0" stop-color="#67E8F9"/>
      <stop offset="0.52" stop-color="#2DD4BF"/>
      <stop offset="1" stop-color="#FBBF24"/>
    </linearGradient>
    <linearGradient id="wordGradient" x1="172" x2="355" y1="44" y2="116" gradientUnits="userSpaceOnUse">
      <stop offset="0" stop-color="#F8FAFC"/>
      <stop offset="1" stop-color="#CBD5E1"/>
    </linearGradient>
  </defs>
  <rect width="640" height="160" fill="none"/>
  <g transform="translate(20 20)">
    <rect x="0" y="0" width="120" height="120" rx="28" fill="#0B1118"/>
    <rect x="1.5" y="1.5" width="117" height="117" rx="26.5" fill="none" stroke="#233241" stroke-width="3"/>
    <path d="M35 38h50a22 22 0 0 1 0 44H35a22 22 0 0 1 0-44Z" fill="url(#markGradient)"/>
    <path d="M60 38v44" stroke="#0B1118" stroke-width="7" stroke-linecap="round" opacity=".5"/>
    <circle cx="32" cy="34" r="6" fill="#E2E8F0"/>
    <circle cx="88" cy="86" r="6" fill="#E2E8F0"/>
    <path d="M38 39 32 34m50 48 6 4" stroke="#E2E8F0" stroke-width="4" stroke-linecap="round"/>
    <path d="M37 98h46" stroke="#67E8F9" stroke-width="7" stroke-linecap="round"/>
  </g>
  <g transform="translate(172 37)">
    <text x="0" y="64" fill="url(#wordGradient)" font-family="Inter, ui-sans-serif, system-ui, -apple-system, BlinkMacSystemFont, 'Segoe UI', sans-serif" font-size="76" font-weight="800" letter-spacing="0">CTX</text>
    <text x="4" y="104" fill="#94A3B8" font-family="Inter, ui-sans-serif, system-ui, -apple-system, BlinkMacSystemFont, 'Segoe UI', sans-serif" font-size="24" font-weight="500" letter-spacing="0">Portable memory for AI workflows</text>
  </g>
</svg>
